<?xml version="1.0" encoding="UTF-8"?>
<svg width="16px" height="16px" viewBox="0 0 16 16" version="1.1" xmlns="http://www.w3.org/2000/svg" xmlns:xlink="http://www.w3.org/1999/xlink">
    <!-- Generator: Sketch 47.1 (45422) - http://www.bohemiancoding.com/sketch -->
    <title>Artboard Copy 3</title>
    <desc>Created with Sketch.</desc>
    <defs>
        <rect id="path-1" x="0" y="0" width="16" height="16"></rect>
        <rect id="path-3" x="0" y="0" width="16" height="16"></rect>
    </defs>
    <g id="Page-1" stroke="none" stroke-width="1" fill="none" fill-rule="evenodd">
        <g id="Artboard-Copy-3">
            <g id="solid--air-conditioning">
                <mask id="mask-2" fill="white">
                    <use xlink:href="#path-1"></use>
                </mask>
                <g id="Rectangle-path"></g>
                <g id="Clipped" mask="url(#mask-2)">
                    <mask id="mask-4" fill="white">
                        <use xlink:href="#path-3"></use>
                    </mask>
                    <g id="Rectangle-path"></g>
                    <path d="M16,7.5 C16,7.22385763 15.7761424,7 15.5,7 L14.457,7 L15.8535,5.6035 C16.0488017,5.40819831 16.0488017,5.09155169 15.8535,4.89625 C15.6581983,4.70094831 15.3415517,4.70094831 15.14625,4.89625 L13.043,7 L9.207,7 L11.8535,4.3535 L11.8535,4.3535 L12.207,4 L14.5,4 C14.7761424,4 15,3.77614237 15,3.5 C15,3.22385763 14.7761424,3 14.5,3 L13.207,3 L13.407,2.8 C13.5386959,2.67483683 13.5921328,2.48808501 13.5465775,2.31220342 C13.5010223,2.13632183 13.3636449,1.99899302 13.1877472,1.95349996 C13.0118495,1.9080069 12.8251166,1.96150989 12.7,2.09325 L12,2.79325 L12,1 C12,0.723857625 11.7761424,0.5 11.5,0.5 C11.2238576,0.5 11,0.723857625 11,1 L11,3.793 L8,6.793 L8,2.957 L10.1035,0.8535 C10.2929861,0.657310557 10.2902762,0.345457611 10.0974093,0.152590712 C9.90454239,-0.0402761869 9.59268944,-0.0429861048 9.3965,0.1465 L8,1.543 L8,0.5 C8,0.223857625 7.77614237,1.69088438e-17 7.5,0 C7.22385763,-1.69088438e-17 7,0.223857625 7,0.5 L7,1.543 L5.6035,0.1465 C5.47716196,0.0201619495 5.29302024,-0.0291786781 5.12043926,0.0170642548 C4.94785828,0.0633071876 4.81305719,0.198108279 4.76681425,0.370689261 C4.72057132,0.543270243 4.76991195,0.727411957 4.89625,0.85375 L7,2.957 L7,6.793 L4,3.793 L4,1.5 C4,1.22385763 3.77614237,1 3.5,1 C3.22385763,1 3,1.22385763 3,1.5 L3,2.793 L2.8,2.593 C2.67483683,2.46130415 2.48808501,2.40786721 2.31220342,2.45342247 C2.13632183,2.49897774 1.99899302,2.63635513 1.95349996,2.81225282 C1.9080069,2.9881505 1.96150989,3.17488342 2.09325,3.3 L2.79325,4 L1,4 C0.723857625,4 0.5,4.22385763 0.5,4.5 C0.5,4.77614237 0.723857625,5 1,5 L3.793,5 L6.793,8 L2.957,8 L0.8535,5.8965 C0.657310557,5.7070139 0.345457611,5.70972381 0.152590712,5.90259071 C-0.0402761869,6.09545761 -0.0429861048,6.40731056 0.1465,6.6035 L1.543,8 L0.5,8 C0.223857625,8 3.38176876e-17,8.22385763 0,8.5 C-3.38176876e-17,8.77614237 0.223857625,9 0.5,9 L1.543,9 L0.1465,10.3965 C-0.0488016947,10.5918017 -0.0488016947,10.9084483 0.1465,11.10375 C0.341801695,11.2990517 0.658448305,11.2990517 0.85375,11.10375 L2.957,9 L6.793,9 L4.1465,11.6465 L4.1465,11.6465 L3.793,12 L1.5,12 C1.22385763,12 1,12.2238576 1,12.5 C1,12.7761424 1.22385763,13 1.5,13 L2.793,13 L2.593,13.2 C2.46130415,13.3251632 2.40786721,13.511915 2.45342247,13.6877966 C2.49897774,13.8636782 2.63635513,14.001007 2.81225282,14.0465 C2.9881505,14.0919931 3.17488342,14.0384901 3.3,13.90675 L4,13.20675 L4,15 C4,15.2761424 4.22385763,15.5 4.5,15.5 C4.77614237,15.5 5,15.2761424 5,15 L5,12.207 L8,9.207 L8,13.043 L5.8965,15.1465 C5.77016196,15.272838 5.72082133,15.4569798 5.76706427,15.6295607 C5.8133072,15.8021417 5.94810829,15.9369428 6.12068927,15.9831857 C6.29327024,16.0294287 6.47741196,15.980088 6.60375,15.85375 L8,14.457 L8,15.5 C8,15.7761424 8.22385763,16 8.5,16 C8.77614237,16 9,15.7761424 9,15.5 L9,14.457 L10.3965,15.8535 C10.5918017,16.0488017 10.9084483,16.0488017 11.10375,15.8535 C11.2990517,15.6581983 11.2990517,15.3415517 11.10375,15.14625 L9,13.043 L9,9.207 L11.6465,11.8535 L11.6465,11.8535 L12,12.207 L12,14.5 C12,14.7761424 12.2238576,15 12.5,15 C12.7761424,15 13,14.7761424 13,14.5 L13,13.207 L13.2,13.407 C13.3251632,13.5386959 13.511915,13.5921328 13.6877966,13.5465775 C13.8636782,13.5010223 14.001007,13.3636449 14.0465,13.1877472 C14.0919931,13.0118495 14.0384901,12.8251166 13.90675,12.7 L13.20675,12 L15,12 C15.2761424,12 15.5,11.7761424 15.5,11.5 C15.5,11.2238576 15.2761424,11 15,11 L12.207,11 L9.207,8 L13.043,8 L15.1465,10.1035 C15.272838,10.229838 15.4569798,10.2791787 15.6295607,10.2329357 C15.8021417,10.1866928 15.9369428,10.0518917 15.9831857,9.87931073 C16.0294287,9.70672976 15.980088,9.52258804 15.85375,9.39625 L14.457,8 L15.5,8 C15.7761424,8 16,7.77614237 16,7.5" id="Shape" fill="#444444" fill-rule="nonzero" mask="url(#mask-4)"></path>
                </g>
            </g>
        </g>
    </g>
</svg>