<?xml version="1.0" encoding="UTF-8"?>
<svg width="16px" height="16px" viewBox="0 0 16 16" version="1.1" xmlns="http://www.w3.org/2000/svg" xmlns:xlink="http://www.w3.org/1999/xlink">
    <!-- Generator: Sketch 47.1 (45422) - http://www.bohemiancoding.com/sketch -->
    <title>Artboard</title>
    <desc>Created with Sketch.</desc>
    <defs>
        <rect id="path-1" x="0" y="0" width="16" height="16"></rect>
        <rect id="path-3" x="0" y="0" width="16" height="16"></rect>
    </defs>
    <g id="Page-1" stroke="none" stroke-width="1" fill="none" fill-rule="evenodd">
        <g id="Artboard">
            <g id="solid--big-bag">
                <mask id="mask-2" fill="white">
                    <use xlink:href="#path-1"></use>
                </mask>
                <g id="Rectangle-path"></g>
                <g id="Clipped" mask="url(#mask-2)">
                    <mask id="mask-4" fill="white">
                        <use xlink:href="#path-3"></use>
                    </mask>
                    <g id="Rectangle-path"></g>
                    <g id="Group" mask="url(#mask-4)" fill-rule="nonzero" fill="#444444">
                        <g transform="translate(0.000000, 1.000000)" id="Shape">
                            <path d="M10.14375,5.11 C10.025482,5.1911564 9.87787231,5.21714081 9.739,5.18125 L9.5,5.52275 L9.7605,7 L10.74525,6.825 L10.48475,5.35 L10.14375,5.11 Z"></path>
                            <path d="M0,3.5 L0,12.5 C1.01453063e-16,13.3284271 0.671572875,14 1.5,14 L3,14 L3,2 L1.5,2 C0.671572875,2 1.01453063e-16,2.67157288 0,3.5"></path>
                            <path d="M14.5,2 L13,2 L13,14 L14.5,14 C15.3284271,14 16,13.3284271 16,12.5 L16,3.5 C16,2.67157288 15.3284271,2 14.5,2"></path>
                            <path d="M8,0 C6.57076022,-0.000517502791 5.24996764,0.762009787 4.53575,2 L4,2 L4,14 L12,14 L12,2 L11.46425,2 C10.7500324,0.762009787 9.42923978,-0.000517502791 8,-1.77635726e-16 M10.919,7.811 L9.93425,7.98475 C9.6729286,8.03103453 9.40392624,7.9715443 9.18649157,7.81938223 C8.9690569,7.66722016 8.82102486,7.43486726 8.775,7.1735 L8.5145,5.69625 C8.46888533,5.43529871 8.52867705,5.16691032 8.68075,4.95 L9.08625,4.37075 C9.13641521,4.29914352 9.19575448,4.23442505 9.26275,4.17825 L8.87875,2 L5.76425,2 C5.80125,1.95875 5.83925,1.91825 5.87875,1.87875 C7.05030678,0.707270913 8.94969322,0.707270913 10.12125,1.87875 C10.16075,1.91825 10.19875,1.95875 10.23575,2 L9.89425,2 L10.2475,4.0035 C10.3295993,4.03338135 10.4074286,4.07389294 10.479,4.124 L11.05825,4.5295 C11.2755088,4.68161753 11.4234401,4.91381115 11.4695,5.175 L11.73,6.6525 C11.7760653,6.91370721 11.7164711,7.18251512 11.5643293,7.39978016 C11.4121875,7.61704519 11.1799629,7.76496716 10.91875,7.811"></path>
                        </g>
                    </g>
                </g>
            </g>
        </g>
    </g>
</svg>