<?xml version="1.0" encoding="UTF-8"?>
<svg width="16px" height="16px" viewBox="0 0 16 16" version="1.1" xmlns="http://www.w3.org/2000/svg" xmlns:xlink="http://www.w3.org/1999/xlink">
    <!-- Generator: Sketch 47.1 (45422) - http://www.bohemiancoding.com/sketch -->
    <title>Artboard Copy 5</title>
    <desc>Created with Sketch.</desc>
    <defs>
        <rect id="path-1" x="0" y="0" width="16" height="16"></rect>
        <rect id="path-3" x="0" y="0" width="16" height="16"></rect>
    </defs>
    <g id="Page-1" stroke="none" stroke-width="1" fill="none" fill-rule="evenodd">
        <g id="Artboard-Copy-5">
            <g id="solid--car-gears-automatic">
                <mask id="mask-2" fill="white">
                    <use xlink:href="#path-1"></use>
                </mask>
                <g id="Rectangle-path"></g>
                <g id="Clipped" mask="url(#mask-2)">
                    <mask id="mask-4" fill="white">
                        <use xlink:href="#path-3"></use>
                    </mask>
                    <g id="Rectangle-path"></g>
                    <path d="M6,2 L6,1.5 C6,0.671572875 6.67157288,1.52179594e-16 7.5,0 C8.32842712,-1.52179594e-16 9,0.671572875 9,1.5 L9,2 L6,2 Z M6,8 L6,14.5 C6,15.3284271 6.67157288,16 7.5,16 C8.32842712,16 9,15.3284271 9,14.5 L9,8 L6,8 Z M11,4 L11,4 C11,3.44771525 10.5522847,3 10,3 L4,3 C3.44771525,3 3,3.44771525 3,4 L3,6 C3,6.55228475 3.44771525,7 4,7 L10,7 C10.5522847,7 11,6.55228475 11,6 C11.5522847,6 12,5.55228475 12,5 C12,4.44771525 11.5522847,4 11,4 L11,4 Z M12.673,2.29675 C12.879,2.29675 13.0401667,2.24 13.1565,2.1265 C13.2728333,2.013 13.3311667,1.85825 13.3315,1.66225 C13.3315,1.46625 13.2726667,1.30691667 13.155,1.18425 C13.0373333,1.06158333 12.8794167,1.00016667 12.68125,1 L12,1 L12,3 L12.40375,3 L12.40375,2.29675 L12.673,2.29675 Z M12.40375,1.3365 L12.68525,1.3365 C12.754321,1.33575626 12.8192116,1.36951442 12.85825,1.4265 C12.90125,1.4855 12.92275,1.56491667 12.92275,1.66475 C12.92275,1.76091667 12.9016667,1.83416667 12.8595,1.8845 C12.8148133,1.93577729 12.7489006,1.96347171 12.681,1.9595 L12.4035,1.9595 L12.40375,1.3365 Z M12.90525,9 L13.33925,9 L13.33925,8.98075 L12.98925,8.162 C13.1824167,8.05583333 13.279,7.86991667 13.279,7.60425 C13.279,7.41108333 13.2238333,7.262 13.1135,7.157 C13.0031667,7.052 12.84675,6.99966667 12.64425,7 L12,7 L12,9 L12.40375,9 L12.40375,8.26925 L12.60375,8.26925 L12.90525,9 Z M12.404,7.3365 L12.64025,7.3365 C12.7969167,7.3365 12.87525,7.4365 12.87525,7.6365 C12.879105,7.71285071 12.8578559,7.78836387 12.81475,7.8515 C12.7744167,7.905 12.714,7.93175 12.6335,7.93175 L12.404,7.93175 L12.404,7.3365 Z M13.39825,10 L12.99575,10 L12.99575,11.31325 L12.40375,10 L12,10 L12,12 L12.40375,12 L12.40375,10.68825 L12.9945,12 L13.39825,12 L13.39825,10 Z M12.51775,15 C12.76125,15 12.9524167,14.925 13.09125,14.775 C13.2300833,14.625 13.2996667,14.4188333 13.3,14.1565 L13.3,13.8315 C13.2973333,13.5733333 13.2265833,13.37 13.08775,13.2215 C12.9489167,13.073 12.7625833,12.9991667 12.52875,13 L12,13 L12,15 L12.51775,15 Z M12.55,13.3365 C12.6755,13.3401667 12.7643333,13.3788333 12.8165,13.4525 C12.8686667,13.5261667 12.89475,13.6564167 12.89475,13.84325 L12.89475,14.19075 C12.8920833,14.36475 12.86325,14.48725 12.80825,14.55825 C12.75325,14.62925 12.6588333,14.66475 12.525,14.66475 L12.404,14.66475 L12.404,13.3365 L12.55,13.3365 Z" id="Shape" fill="#444444" fill-rule="nonzero" mask="url(#mask-4)"></path>
                </g>
            </g>
        </g>
    </g>
</svg>